<svg width="38" height="38" viewBox="0 0 38 38" fill="none" xmlns="http://www.w3.org/2000/svg">
<circle cx="19" cy="19" r="19" fill="#17A2B8"/>
<mask id="mask0_5701_31627" style="mask-type:alpha" maskUnits="userSpaceOnUse" x="7" y="7" width="24" height="24">
<rect x="7" y="7" width="24" height="24" fill="#D9D9D9"/>
</mask>
<g mask="url(#mask0_5701_31627)">
<path d="M18.25 23.75H19.75V19.75H23.75V18.25H19.75V14.25H18.25V18.25H14.25V19.75H18.25V23.75ZM19.0016 28.5C17.6877 28.5 16.4527 28.2506 15.2966 27.752C14.1404 27.2533 13.1347 26.5765 12.2795 25.7217C11.4243 24.8669 10.7472 23.8616 10.2483 22.706C9.74944 21.5504 9.5 20.3156 9.5 19.0017C9.5 17.6877 9.74933 16.4527 10.248 15.2966C10.7467 14.1404 11.4234 13.1347 12.2783 12.2795C13.1331 11.4243 14.1383 10.7472 15.294 10.2483C16.4496 9.74944 17.6844 9.5 18.9983 9.5C20.3122 9.5 21.5473 9.74933 22.7034 10.248C23.8596 10.7467 24.8652 11.4234 25.7205 12.2783C26.5757 13.1331 27.2527 14.1383 27.7516 15.294C28.2505 16.4496 28.5 17.6844 28.5 18.9983C28.5 20.3122 28.2506 21.5473 27.752 22.7034C27.2533 23.8596 26.5765 24.8652 25.7217 25.7205C24.8669 26.5757 23.8616 27.2527 22.706 27.7516C21.5504 28.2505 20.3156 28.5 19.0016 28.5ZM19 27C21.2333 27 23.125 26.225 24.675 24.675C26.225 23.125 27 21.2333 27 19C27 16.7666 26.225 14.875 24.675 13.325C23.125 11.775 21.2333 11 19 11C16.7666 11 14.875 11.775 13.325 13.325C11.775 14.875 11 16.7666 11 19C11 21.2333 11.775 23.125 13.325 24.675C14.875 26.225 16.7666 27 19 27Z" fill="white"/>
</g>
</svg>
