<svg width="14" height="14" viewBox="0 0 14 14" fill="none" xmlns="http://www.w3.org/2000/svg">
<g id="filter_alt">
<mask id="mask0_5701_31623" style="mask-type:alpha" maskUnits="userSpaceOnUse" x="0" y="0" width="14" height="14">
<rect id="Bounding box" width="14" height="14" fill="#D9D9D9"/>
</mask>
<g mask="url(#mask0_5701_31623)">
<path id="filter_alt_2" d="M6.6407 11.375C6.49412 11.375 6.37147 11.3256 6.27275 11.2269C6.17403 11.1282 6.12467 11.0055 6.12467 10.8589V7.48234L2.85914 3.33397C2.74697 3.18439 2.7307 3.02884 2.81035 2.8673C2.88999 2.70577 3.02441 2.625 3.21362 2.625H10.7857C10.9749 2.625 11.1093 2.70577 11.189 2.8673C11.2686 3.02884 11.2523 3.18439 11.1402 3.33397L7.87464 7.48234V10.8589C7.87464 11.0055 7.82528 11.1282 7.72656 11.2269C7.62784 11.3256 7.50519 11.375 7.35861 11.375H6.6407ZM6.99966 7.17499L9.88716 3.49999H4.11216L6.99966 7.17499Z" fill="white"/>
</g>
</g>
</svg>
